<?xml version="1.0" encoding="UTF-8"?>
<svg xmlns="http://www.w3.org/2000/svg" xmlns:xlink="http://www.w3.org/1999/xlink" width="16px" height="16px" viewBox="0 0 16 16" version="1.1">
<defs>
<filter id="alpha" filterUnits="objectBoundingBox" x="0%" y="0%" width="100%" height="100%">
  <feColorMatrix type="matrix" in="SourceGraphic" values="0 0 0 0 1 0 0 0 0 1 0 0 0 0 1 0 0 0 1 0"/>
</filter>
<mask id="mask0">
  <g filter="url(#alpha)">
<rect x="0" y="0" width="16" height="16" style="fill:rgb(0%,0%,0%);fill-opacity:0.501961;stroke:none;"/>
  </g>
</mask>
<clipPath id="clip1">
  <rect x="0" y="0" width="16" height="16"/>
</clipPath>
<g id="surface5" clip-path="url(#clip1)">
<path style="fill:none;stroke-width:1.5;stroke-linecap:butt;stroke-linejoin:miter;stroke:rgb(94.117647%,20%,30.980392%);stroke-opacity:1;stroke-miterlimit:4;" d="M 16.412109 17.976562 C 16.207031 18.615234 15.837891 19.189453 15.345703 19.652344 C 14.613281 20.337891 13.488281 20.636719 11.232422 21.246094 C 8.976562 21.849609 7.851562 22.148438 6.873047 21.919922 C 6.105469 21.744141 5.402344 21.339844 4.863281 20.759766 C 4.177734 20.027344 3.878906 18.902344 3.269531 16.646484 L 2.753906 14.712891 C 2.150391 12.462891 1.845703 11.332031 2.074219 10.359375 C 2.255859 9.585938 2.660156 8.888672 3.234375 8.34375 C 3.966797 7.658203 5.097656 7.359375 7.353516 6.755859 C 7.775391 6.638672 8.162109 6.539062 8.513672 6.445312 " transform="matrix(0.666667,0,0,0.666667,0,0)"/>
</g>
<mask id="mask1">
  <g filter="url(#alpha)">
<rect x="0" y="0" width="16" height="16" style="fill:rgb(0%,0%,0%);fill-opacity:0.501961;stroke:none;"/>
  </g>
</mask>
<clipPath id="clip2">
  <rect x="0" y="0" width="16" height="16"/>
</clipPath>
<g id="surface8" clip-path="url(#clip2)">
<path style="fill:none;stroke-width:1.5;stroke-linecap:round;stroke-linejoin:miter;stroke:rgb(94.117647%,20%,30.980392%);stroke-opacity:1;stroke-miterlimit:4;" d="M 10.998047 12.896484 L 13.898438 13.675781 " transform="matrix(0.666667,0,0,0.666667,0,0)"/>
</g>
</defs>
<g id="surface1">
<path style="fill:none;stroke-width:1.5;stroke-linecap:butt;stroke-linejoin:miter;stroke:rgb(94.117647%,20%,30.980392%);stroke-opacity:1;stroke-miterlimit:4;" d="M 20.314453 12.644531 L 20.830078 10.716797 C 21.433594 8.460938 21.738281 7.330078 21.509766 6.357422 C 21.328125 5.583984 20.923828 4.886719 20.349609 4.347656 C 19.617188 3.662109 18.486328 3.357422 16.230469 2.753906 C 13.980469 2.150391 12.849609 1.845703 11.876953 2.074219 C 11.103516 2.255859 10.40625 2.660156 9.861328 3.234375 C 9.275391 3.861328 8.970703 4.78125 8.513672 6.445312 C 8.4375 6.726562 8.361328 7.025391 8.273438 7.347656 L 8.273438 7.353516 L 7.751953 9.28125 C 7.148438 11.537109 6.849609 12.667969 7.078125 13.640625 C 7.253906 14.414062 7.658203 15.111328 8.238281 15.650391 C 8.970703 16.335938 10.095703 16.640625 12.351562 17.244141 C 14.384766 17.789062 15.498047 18.087891 16.412109 17.976562 C 16.517578 17.964844 16.611328 17.947266 16.710938 17.923828 C 17.478516 17.742188 18.181641 17.337891 18.720703 16.763672 C 19.40625 16.03125 19.705078 14.900391 20.314453 12.644531 Z M 20.314453 12.644531 " transform="matrix(0.666667,0,0,0.666667,0,0)"/>
<use xlink:href="#surface5" mask="url(#mask0)"/>
<path style="fill:none;stroke-width:1.5;stroke-linecap:round;stroke-linejoin:miter;stroke:rgb(94.117647%,20%,30.980392%);stroke-opacity:1;stroke-miterlimit:4;" d="M 11.777344 10.001953 L 16.605469 11.296875 " transform="matrix(0.666667,0,0,0.666667,0,0)"/>
<use xlink:href="#surface8" mask="url(#mask1)"/>
</g>
</svg>
